PathFileType	4	(X/Y/Z)	Patient4_TMGait_0pt8_01_right_17.trc.trc
DataRate	CameraRate	NumFrames	NumMarkers	Units	OrigDataRate	OrigDataStartFrame	OrigNumFrames
88.050314465409	88.050314465409	4	33	mm	88.050314465409	106	       141
Frame#	Time	Sacral			L.Shoulder			Chest			R.Shoulder			Neck			R.ASIS			L.ASIS			R.Thigh.Superior			R.Thigh.Lateral			R.Thigh.Inferior			R.Patella			L.Thigh.Superior			L.Thigh.Lateral			L.Thigh.Inferior			L.Patella			L.Shank.Superior			L.Shank.Lateral			L.Shank.Inferior			R.Shank.Superior			R.Shank.Lateral			R.Shank.Inferior			R.Heel			R.Midfoot.Superior			R.Midfoot.Lateral			R.Toe			L.Heel			L.Midfoot.Lateral			L.Midfoot.Superior			L.Toe			L.Elbow			L.Wrist			R.Elbow			R.Wrist			
		X1	Y1	Z1	X2	Y2	Z2	X3	Y3	Z3	X4	Y4	Z4	X5	Y5	Z5	X6	Y6	Z6	X7	Y7	Z7	X8	Y8	Z8	X9	Y9	Z9	X10	Y10	Z10	X11	Y11	Z11	X12	Y12	Z12	X13	Y13	Z13	X14	Y14	Z14	X15	Y15	Z15	X16	Y16	Z16	X17	Y17	Z17	X18	Y18	Z18	X19	Y19	Z19	X20	Y20	Z20	X21	Y21	Z21	X22	Y22	Z22	X23	Y23	Z23	X24	Y24	Z24	X25	Y25	Z25	X26	Y26	Z26	X27	Y27	Z27	X28	Y28	Z28	X29	Y29	Z29	X30	Y30	Z30	X31	Y31	Z31	X32	Y32	Z32	X33	Y33	Z33	

106	20.042500000000	908.329780344158	1011.305392121541	397.887722798647	1106.248116302133	1442.638013222103	237.605069275233	1189.336934656382	1371.315068867074	408.859725145490	1084.873435452659	1439.092271823403	574.271842537633	1070.420734268427	1500.625259078482	392.913394948831	1125.049456809464	950.960349616634	533.438545011979	1133.682597572545	968.028768794044	259.430845444963	1222.440499676594	796.586139769560	509.867932299157	1191.992702791670	673.081219448669	585.406323230590	1290.513915646305	642.365023916609	513.552760915808	1319.955716891301	532.459296299437	538.552984222726	1161.106095201183	745.935753072916	291.943007537101	1061.549057004866	638.436837002708	227.491250124374	1131.405946538470	553.269070707825	295.862465899595	1123.359812939069	486.762151806441	307.323136324185	1098.205258653377	417.191259381257	299.473722705108	1008.708801085584	302.924683948853	249.319591174943	1054.130084790215	192.963664388250	325.543891181276	1253.675198567751	449.136338058261	541.177291737145	1135.672015563394	393.040019319300	594.293901563806	1140.319552539795	282.628474203609	546.142152712609	953.182099150901	191.968975718418	505.300514156568	1125.233764723248	160.350249041416	561.264404590895	1013.847680682547	143.371554949040	585.205133546232	1201.746991549687	57.016172041832	595.278699828348	923.414871883270	39.096093531358	371.313631185435	997.342059930620	35.512992745585	290.696334987694	1080.767345165594	96.543839895375	317.664536985992	1209.274814797767	43.559852515355	289.409110343562	1166.396893256905	1105.228685542539	96.553636556673	1364.021241582800	935.284027273844	121.310385540408	1014.252977917852	1090.373638630788	675.534097815691	1089.502281229823	839.589719594390	682.702573274809	
107	20.053857142857	907.828705605808	1010.742586553108	397.356756297466	1106.772700321649	1442.744674937739	238.491220139062	1188.928013397248	1370.894823945048	409.960538793621	1083.507169594072	1438.139208221361	575.001206441532	1070.123577343819	1500.235937554435	393.750583955357	1124.299616133247	950.893080826993	533.519515379455	1133.648864147372	967.726427302484	259.393878676672	1222.408208673330	797.898831335087	510.112957849665	1193.119990406809	674.157273477248	585.810349597357	1291.466658153463	644.128580943922	513.631321885128	1322.984683877172	536.237793378431	538.994914115831	1158.870263899602	744.625027192198	292.317557417943	1058.070064515051	638.075410039508	227.492075013153	1126.561537232428	552.145542288403	296.004675552901	1117.756252991409	485.795974091970	307.417597107677	1092.054010958191	416.402150236180	299.575013743754	1001.672296433220	302.881315952855	249.273826117156	1045.947943542127	192.544783489794	325.619713878133	1260.719637813031	450.938199627252	542.580444178393	1146.770232097173	388.386904546273	596.868743374865	1157.778126676296	278.074360637965	549.370197422060	976.433943788438	176.572681589334	509.796333580617	1150.075497435613	154.818672144667	565.903814779345	1039.702067319361	132.254945834764	590.217173428446	1231.869748898039	56.049339787706	601.007745549409	914.277323776768	39.146838748335	371.279154157418	988.197892243264	35.512970580798	290.683931207637	1071.690585658648	96.472046159067	317.686932763101	1200.180107180722	43.364798960785	289.399773463328	1173.952289847493	1108.015979399573	95.611269374172	1380.993224681465	950.117626940291	122.226442049144	1004.431867194043	1091.093548153809	674.763874586143	1061.671383512651	835.692412173469	684.342782639139	
108	20.065214285714	907.470480394782	1010.156845316462	396.966967075754	1107.399215185692	1442.753941262023	239.485747812981	1188.644426677769	1370.389134418907	411.154694737201	1082.304369477762	1437.164333290747	575.809273249653	1069.924108485315	1499.761392655392	394.670657214835	1123.675227853466	950.672826107182	533.729422097659	1133.706414799377	967.349654112844	259.462547389228	1222.014535375231	798.514486053623	510.351576288694	1193.522704209792	674.628335569836	586.215241438823	1291.503384927727	644.977890032198	513.622342130597	1324.911193377503	539.347726766448	539.340646030208	1156.648431943129	743.258289769216	292.649484686357	1054.481616355701	637.728045772578	227.544592784782	1121.626811713370	551.028154164373	296.138391293755	1112.075023439510	484.842257575017	307.489583916562	1085.789761402474	415.643579935778	299.665753825961	994.509329084296	302.869673111910	249.227616201988	1037.711508715569	192.154788970223	325.668399616491	1266.917989736646	452.347262986917	543.968658260141	1157.678394142037	383.346443723380	599.561258672102	1175.305759760489	273.579914386108	552.675562883996	1000.745350936739	161.172108193822	514.457539948295	1175.405191731851	149.629745930309	570.492924172628	1066.471580945813	121.394389340905	595.327817311381	1262.413856448631	56.007873056498	606.674249988822	905.143807624695	39.210570580862	371.242259566204	979.049886445310	35.514999227080	290.671801094462	1062.608378157418	96.407180770422	317.696793358788	1191.074790031594	43.178249459623	289.395148275462	1180.913932558917	1110.737815167497	94.893007289852	1396.688852760296	965.540078452025	123.424659861175	994.593409301929	1092.229804194980	674.039796252534	1034.833752658636	833.763001042387	685.615892521326	
109	20.076571428571	907.266779294311	1009.528654284113	396.708576607765	1108.125717400233	1442.645603243778	240.582629104821	1188.482068192897	1369.791519787008	412.442227038583	1081.261503725055	1436.173804130554	576.691657311716	1069.813611195565	1499.190482281018	395.665464875379	1123.193333850486	950.294054240565	534.084621225754	1133.875850798032	966.890611141158	259.652594791949	1221.272255978799	798.401431382919	510.607761667046	1193.199423416608	674.473341939543	586.676013703525	1290.657208748046	644.898302232619	513.603148918557	1325.754772540927	541.748145251134	539.637692321608	1154.422795516035	741.835054228629	292.944718974214	1050.765084996843	637.400956426015	227.635838493427	1116.572949878731	549.919615950820	296.254218209819	1106.278379971701	483.901538357702	307.529844514212	1079.378805858508	414.925027695608	299.736606440013	987.199726578157	302.893372095998	249.176817678417	1029.415029453958	191.801370706908	325.684444927359	1272.263070557093	453.367624888422	545.345847514478	1168.362488418952	378.024075620289	602.338620632632	1192.769494289181	269.295114041324	555.974793098480	1025.964584713913	146.074177170908	519.151100101336	1201.019230954734	145.010530245210	574.908270458944	1093.977634665911	111.036957340618	600.374337682563	1293.112734893830	57.079980480899	612.055100964798	896.012775463518	39.287411893693	371.204915092586	969.898253831328	35.519265072488	290.660581979999	1053.520795384020	96.348063604385	317.692636326155	1181.957014568526	43.002758512746	289.395096437284	1187.322344596548	1113.338888489556	94.386203943036	1411.047234782639	981.399658661643	124.890097582087	984.766444758832	1093.811613392714	673.391239009060	1009.226662442250	833.579646006280	686.528807365012	
